<svg xmlns="http://www.w3.org/2000/svg"  viewBox="0 0 50 50" width="250px" height="250px"><path d="M25.002,2l-22,6.9v29.9l22,9.2l22-9.2V8.9L25.002,2z M18.852,36.01c-0.24,0.54-0.58,0.95-1.02,1.22	c-0.45,0.28-0.98,0.42-1.6,0.42c-0.62,0-1.31-0.14-2.07-0.42c-0.67-0.24-1.32-0.61-1.97-1.08c-0.64-0.48-1.22-1.05-1.72-1.71	c-0.51-0.66-0.91-1.4-1.22-2.22s-0.46-1.71-0.46-2.67l2.36,0.83c0,0.57,0.08,1.09,0.23,1.56c0.16,0.47,0.37,0.88,0.64,1.24	c0.26,0.36,0.58,0.67,0.95,0.92c0.37,0.25,0.77,0.46,1.19,0.61c0.85,0.31,1.49,0.32,1.92,0.02c0.43-0.3,0.65-0.82,0.65-1.56	c0-0.37-0.04-0.72-0.13-1.04c-0.08-0.32-0.24-0.65-0.46-0.97c-0.22-0.32-0.53-0.66-0.92-1.02c-0.39-0.36-0.89-0.77-1.49-1.22	c-0.67-0.48-1.27-0.99-1.83-1.51c-0.55-0.53-1.03-1.07-1.43-1.65c-0.39-0.57-0.7-1.18-0.93-1.83c-0.22-0.64-0.33-1.33-0.33-2.07	c0-0.73,0.11-1.36,0.35-1.9c0.23-0.53,0.56-0.96,0.98-1.27c0.43-0.32,0.94-0.51,1.54-0.57c0.6-0.06,1.27,0.02,2,0.25	c0.79,0.24,1.5,0.61,2.13,1.11c0.64,0.5,1.18,1.08,1.62,1.74s0.78,1.36,1.02,2.13c0.23,0.76,0.35,1.53,0.35,2.3l-2.47-0.81	c0-0.45-0.06-0.88-0.16-1.29c-0.11-0.41-0.27-0.79-0.49-1.13c-0.22-0.35-0.5-0.65-0.84-0.91c-0.33-0.26-0.72-0.46-1.18-0.61	c-0.43-0.13-0.8-0.19-1.11-0.16s-0.57,0.12-0.77,0.28c-0.21,0.16-0.36,0.37-0.46,0.65c-0.09,0.28-0.14,0.6-0.14,0.95	c0,0.68,0.24,1.32,0.72,1.93c0.49,0.61,1.23,1.28,2.23,2c0.79,0.57,1.48,1.14,2.06,1.71c0.59,0.57,1.07,1.16,1.46,1.77	c0.39,0.6,0.68,1.23,0.88,1.89c0.18,0.66,0.28,1.36,0.28,2.1C19.212,34.81,19.092,35.47,18.852,36.01z M40.702,35.05l-2.07,0.85	l-2.4-12.57l-2.5,14.58l-2.18,0.89l-3.08-17.81l2.3-0.79l2.05,13.41l2.47-14.97l1.86-0.64l2.37,13l1.9-14.47l2.11-0.73L40.702,35.05	z"/></svg>