<svg width="53" height="60" viewBox="0 0 53 60" fill="none" xmlns="http://www.w3.org/2000/svg">
<path d="M39.0346 14.4168C38.7235 15.2143 38.4124 16.0119 38.0965 17.5242C37.7807 19.0365 37.4696 21.2393 37.3612 25.0137C37.2527 28.788 37.3564 34.0672 37.9802 38.0781C38.604 42.089 39.7448 44.6716 40.6695 46.5147C42.1286 49.423 43.1184 50.7817 43.6393 51.6604C44.4185 52.9749 45.2664 53.7763 45.2939 53.6072C45.4548 52.6167 44.432 51.5183 43.6762 50.4485C43.2078 49.7855 42.4537 48.923 41.5353 47.9603C40.6169 46.9975 39.528 45.9721 38.3448 45.0261C36.0235 43.17 34.1683 42.1557 33.2797 41.6965C31.6593 40.8591 30.3453 40.0473 29.7136 39.5461C29.4442 39.3322 30.8466 39.3913 33.7762 39.3343C35.6825 39.2972 36.9856 38.8181 38.1099 38.3779C39.0135 38.0241 40.8526 36.7166 43.2865 34.9154C44.6702 33.8915 45.3151 33.0648 46.2814 32.243C46.8192 31.7857 47.2996 31.1554 47.9297 30.2347C48.5598 29.314 49.2857 28.0986 49.6856 26.1053C50.0855 24.1119 50.1374 21.3774 49.6456 19.1141C49.1537 16.8509 48.1167 15.1418 47.1936 13.8436C45.6353 11.6522 44.1727 10.4692 42.6093 9.49494C41.6016 8.86699 40.0088 8.10293 38.7926 7.57812C37.5764 7.05331 36.7468 6.82543 35.6712 6.5941C34.5957 6.36277 33.2993 6.13489 31.05 5.99851C28.8007 5.86213 25.6377 5.82415 23.5934 5.89953C21.5492 5.97491 20.7195 6.16481 19.1514 6.73739C17.5832 7.30996 15.3017 8.25945 13.5301 9.10939C11.7584 9.95933 10.5658 10.6809 9.71809 11.2806C8.31516 12.2729 7.04139 13.9069 5.47245 16.0125C4.12559 17.82 3.6301 19.3978 3.26399 21.2491C3.01953 22.4851 3.00158 24.3536 3.00001 25.5972C2.99771 27.4119 3.52011 28.4911 4.19891 29.4481C4.86047 30.3807 5.61622 30.9114 6.13789 31.1606C6.76787 31.4615 7.60548 31.335 8.56947 31.1451C10.3206 30.8001 12.0004 29.6144 13.4641 28.4663C14.1779 27.9065 14.7203 27.3183 15.8697 24.936C17.0191 22.5536 18.7303 18.3758 19.6377 16.0717C20.5451 13.7676 20.597 13.4638 20.6237 13.2313C20.6504 12.9988 20.6504 12.8469 20.4948 13.2434C20.3393 13.6399 20.0282 14.5894 19.7642 15.8191C19.5002 17.0489 19.2928 18.5301 19.1859 19.9578C19.0791 21.3854 19.0791 22.7147 19.2087 24.0072C19.4612 26.5243 20.0722 27.9951 20.5161 28.4353C20.9556 28.8712 21.4345 29.1091 22.0072 29.2242C23.0609 29.4359 24.5189 28.9595 25.904 28.2523C26.6087 27.8925 27.1336 27.3552 27.9459 26.2842C28.7583 25.2133 29.7954 23.5802 30.4852 21.7894C31.175 19.9986 31.4861 18.0996 31.6723 15.906C31.8585 13.7124 31.9103 11.2817 32.0667 9.45984C32.3216 6.48883 32.7494 4.94486 32.7235 4.54032C32.7215 4.50916 32.6457 4.85739 32.1782 6.62863C31.7108 8.39986 30.8293 11.5901 30.1937 17.4494C29.5581 23.3086 29.1951 31.7401 29.3192 37.6597C29.4434 43.5794 30.0656 46.7317 31.0084 49.457C31.9512 52.1823 33.1956 54.3852 33.8886 55.5769C34.5815 56.7687 34.6852 56.8826 34.7921 57" stroke="#182117" stroke-width="5" stroke-linecap="round"/>
<path d="M39.0346 11.8783C38.7235 12.6759 38.4123 13.4734 38.0965 14.9857C37.7807 16.498 37.4696 18.7008 37.3611 22.4752C37.2527 26.2496 37.3564 31.5287 37.9802 35.5396C38.604 39.5505 39.7448 42.1331 40.6695 43.9763C42.1286 46.8846 43.1184 48.2432 43.6393 49.1219C44.4185 50.4364 45.2663 51.2379 45.2938 51.0687C45.4548 50.0782 44.432 48.9798 43.6762 47.91C43.2078 47.247 42.4537 46.3845 41.5353 45.4218C40.6169 44.4591 39.528 43.4336 38.3448 42.4876C36.0235 40.6315 34.1683 39.6172 33.2797 39.158C31.6593 38.3206 30.3453 37.5088 29.7136 37.0076C29.4442 36.7938 30.8465 36.8528 33.7762 36.7958C35.6825 36.7588 36.9856 36.2796 38.1099 35.8394C39.0135 35.4856 40.8526 34.1781 43.2865 32.3769C44.6702 31.353 45.3151 30.5263 46.2814 29.7046C46.8192 29.2473 47.2996 28.617 47.9297 27.6962C48.5598 26.7755 49.2857 25.5602 49.6856 23.5668C50.0855 21.5735 50.1374 18.8389 49.6456 16.5757C49.1537 14.3124 48.1167 12.6034 47.1935 11.3051C45.6353 9.11371 44.1727 7.93071 42.6093 6.95647C41.6016 6.32853 40.0088 5.56446 38.7926 5.03965C37.5764 4.51484 36.7468 4.28696 35.6712 4.05563C34.5957 3.8243 33.2993 3.59642 31.05 3.46004C28.8007 3.32366 25.6377 3.28568 23.5934 3.36106C21.5492 3.43645 20.7195 3.62635 19.1514 4.19892C17.5832 4.77149 15.3017 5.72098 13.5301 6.57092C11.7584 7.42086 10.5658 8.14247 9.71809 8.74209C8.31516 9.73443 7.04139 11.3684 5.47244 13.474C4.12559 15.2815 3.6301 16.8594 3.26399 18.7106C3.01953 19.9467 3.00158 21.8151 3.00001 23.0587C2.99771 24.8735 3.52011 25.9526 4.19891 26.9096C4.86047 27.8423 5.61622 28.373 6.13789 28.6221C6.76787 28.923 7.60548 28.7965 8.56947 28.6066C10.3206 28.2616 12.0004 27.0759 13.4641 25.9279C14.1779 25.368 14.7203 24.7799 15.8697 22.3975C17.0191 20.0151 18.7303 15.8374 19.6377 13.5333C20.5451 11.2292 20.597 10.9253 20.6237 10.6929C20.6504 10.4604 20.6504 10.3085 20.4948 10.7049C20.3393 11.1014 20.0282 12.0509 19.7642 13.2807C19.5002 14.5104 19.2928 15.9916 19.1859 17.4193C19.0791 18.847 19.0791 20.1763 19.2087 21.4687C19.4612 23.9859 20.0722 25.4566 20.5161 25.8968C20.9556 26.3327 21.4345 26.5707 22.0072 26.6858C23.0609 26.8975 24.5189 26.421 25.904 25.7138C26.6087 25.354 27.1336 24.8167 27.9459 23.7458C28.7583 22.6749 29.7953 21.0417 30.4851 19.2509C31.1749 17.4601 31.4861 15.5612 31.6723 13.3676C31.8585 11.1739 31.9103 8.74324 32.0667 6.92137C32.3216 3.95036 32.7494 2.40639 32.7235 2.00185C32.7215 1.9707 32.6457 2.31892 32.1782 4.09016C31.7108 5.86139 30.8293 9.05168 30.1937 14.9109C29.5581 20.7701 29.1951 29.2016 29.3192 35.1213C29.4434 41.0409 30.0656 44.1932 31.0084 46.9186C31.9512 49.6439 33.1956 51.8467 33.8886 53.0385C34.5815 54.2302 34.6852 54.3441 34.7921 54.4615" stroke="#74996F" stroke-width="4" stroke-linecap="round"/>
</svg>
