<svg width="53" height="60" viewBox="0 0 53 60" fill="none" xmlns="http://www.w3.org/2000/svg">
<path d="M39.0346 14.3451C38.7235 15.1381 38.4124 15.931 38.0965 17.4346C37.7807 18.9381 37.4696 21.1282 37.3612 24.8808C37.2527 28.6334 37.3564 33.8821 37.9802 37.8698C38.604 41.8576 39.7448 44.4253 40.6695 46.2578C42.1286 49.1493 43.1184 50.5001 43.6393 51.3738C44.4185 52.6806 45.2664 53.4775 45.2939 53.3093C45.4548 52.3245 44.432 51.2325 43.6762 50.1689C43.2078 49.5097 42.4537 48.6522 41.5353 47.695C40.6169 46.7378 39.528 45.7183 38.3448 44.7777C36.0235 42.9324 34.1683 41.9239 33.2797 41.4674C31.6593 40.6348 30.3453 39.8277 29.7136 39.3293C29.4442 39.1168 30.8466 39.1754 33.7762 39.1188C35.6825 39.0819 36.9856 38.6056 38.1099 38.1679C39.0135 37.8161 40.8526 36.5162 43.2865 34.7254C44.6702 33.7074 45.3151 32.8855 46.2814 32.0685C46.8192 31.6138 47.2996 30.9871 47.9297 30.0717C48.5598 29.1563 49.2857 27.948 49.6856 25.9661C50.0855 23.9843 50.1374 21.2655 49.6456 19.0154C49.1537 16.7652 48.1167 15.066 47.1936 13.7752C45.6353 11.5965 44.1727 10.4203 42.6093 9.45167C41.6016 8.82735 40.0088 8.0677 38.7926 7.54592C37.5764 7.02414 36.7468 6.79757 35.6712 6.56758C34.5957 6.33758 33.2993 6.11102 31.05 5.97542C28.8007 5.83983 25.6377 5.80207 23.5934 5.87702C21.5492 5.95197 20.7195 6.14077 19.1514 6.71004C17.5832 7.2793 15.3017 8.22332 13.5301 9.06835C11.7584 9.91338 10.5658 10.6308 9.71809 11.227C8.31516 12.2136 7.04139 13.8382 5.47245 15.9316C4.12559 17.7287 3.6301 19.2974 3.26399 21.138C3.01953 22.3669 3.00158 24.2246 3.00001 25.461C2.99771 27.2653 3.52011 28.3382 4.19891 29.2896C4.86047 30.2169 5.61622 30.7446 6.13789 30.9923C6.76787 31.2915 7.60548 31.1656 8.56947 30.9768C10.3206 30.6339 12.0004 29.455 13.4641 28.3136C14.1779 27.7569 14.7203 27.1722 15.8697 24.8036C17.0191 22.435 18.7303 18.2813 19.6377 15.9905C20.5451 13.6997 20.597 13.3976 20.6237 13.1665C20.6504 12.9354 20.6504 12.7843 20.4948 13.1785C20.3393 13.5727 20.0282 14.5167 19.7642 15.7394C19.5002 16.962 19.2928 18.4347 19.1859 19.8541C19.0791 21.2736 19.0791 22.5952 19.2087 23.8802C19.4612 26.3828 20.0722 27.845 20.5161 28.2827C20.9556 28.7161 21.4345 28.9526 22.0072 29.0671C23.0609 29.2776 24.5189 28.8039 25.904 28.1008C26.6087 27.743 27.1336 27.2088 27.9459 26.1441C28.7583 25.0793 29.7954 23.4556 30.4852 21.6752C31.175 19.8947 31.4861 18.0067 31.6723 15.8257C31.8585 13.6448 31.9103 11.2281 32.0667 9.41677C32.3216 6.46292 32.7494 4.92786 32.7235 4.52565C32.7215 4.49468 32.6457 4.8409 32.1782 6.6019C31.7108 8.36291 30.8293 11.5348 30.1937 17.3602C29.5581 23.1856 29.1951 31.5684 29.3192 37.4539C29.4434 43.3394 30.0656 46.4735 31.0084 49.1831C31.9512 51.8927 33.1956 54.0828 33.8886 55.2677C34.5815 56.4525 34.6852 56.5658 34.7921 56.6825" stroke="#080908" stroke-width="5" stroke-linecap="round"/>
<path d="M39.0346 11.8213C38.7235 12.6142 38.4123 13.4072 38.0965 14.9108C37.7807 16.4143 37.4696 18.6044 37.3611 22.357C37.2527 26.1096 37.3564 31.3583 37.9802 35.346C38.604 39.3338 39.7448 41.9015 40.6695 43.734C42.1286 46.6255 43.1184 47.9763 43.6393 48.85C44.4185 50.1568 45.2663 50.9537 45.2938 50.7855C45.4548 49.8007 44.432 48.7086 43.6762 47.6451C43.2078 46.9858 42.4537 46.1283 41.5353 45.1712C40.6169 44.214 39.528 43.1945 38.3448 42.2539C36.0235 40.4085 34.1683 39.4001 33.2797 38.9436C31.6593 38.111 30.3453 37.3038 29.7136 36.8055C29.4442 36.5929 30.8465 36.6516 33.7762 36.595C35.6825 36.5581 36.9856 36.0818 38.1099 35.6441C39.0135 35.2923 40.8526 33.9924 43.2865 32.2016C44.6702 31.1836 45.3151 30.3616 46.2814 29.5446C46.8192 29.09 47.2996 28.4633 47.9297 27.5479C48.5598 26.6325 49.2857 25.4242 49.6856 23.4423C50.0855 21.4605 50.1374 18.7417 49.6456 16.4916C49.1537 14.2414 48.1167 12.5422 47.1935 11.2514C45.6353 9.07265 44.1727 7.89647 42.6093 6.92786C41.6016 6.30354 40.0088 5.54388 38.7926 5.0221C37.5764 4.50032 36.7468 4.27376 35.6712 4.04377C34.5957 3.81377 33.2993 3.58721 31.05 3.45161C28.8007 3.31602 25.6377 3.27826 23.5934 3.35321C21.5492 3.42816 20.7195 3.61696 19.1514 4.18623C17.5832 4.75549 15.3017 5.6995 13.5301 6.54454C11.7584 7.38957 10.5658 8.10702 9.71809 8.70317C8.31516 9.68979 7.04139 11.3144 5.47244 13.4078C4.12559 15.2049 3.6301 16.7736 3.26399 18.6141C3.01953 19.8431 3.00158 21.7008 3.00001 22.9371C2.99771 24.7414 3.52011 25.8144 4.19891 26.7658C4.86047 27.6931 5.61622 28.2207 6.13789 28.4685C6.76787 28.7676 7.60548 28.6418 8.56947 28.453C10.3206 28.1101 12.0004 26.9312 13.4641 25.7898C14.1779 25.2331 14.7203 24.6484 15.8697 22.2798C17.0191 19.9112 18.7303 15.7575 19.6377 13.4667C20.5451 11.1759 20.597 10.8738 20.6237 10.6427C20.6504 10.4115 20.6504 10.2605 20.4948 10.6547C20.3393 11.0489 20.0282 11.9929 19.7642 13.2155C19.5002 14.4382 19.2928 15.9108 19.1859 17.3303C19.0791 18.7497 19.0791 20.0714 19.2087 21.3564C19.4612 23.859 20.0722 25.3212 20.5161 25.7589C20.9556 26.1923 21.4345 26.4288 22.0072 26.5433C23.0609 26.7538 24.5189 26.2801 25.904 25.5769C26.6087 25.2192 27.1336 24.685 27.9459 23.6203C28.7583 22.5555 29.7953 20.9318 30.4851 19.1514C31.1749 17.3709 31.4861 15.4829 31.6723 13.3019C31.8585 11.121 31.9103 8.70432 32.0667 6.89296C32.3216 3.93911 32.7494 2.40405 32.7235 2.00184C32.7215 1.97086 32.6457 2.31708 32.1782 4.07809C31.7108 5.8391 30.8293 9.01098 30.1937 14.8364C29.5581 20.6618 29.1951 29.0446 29.3192 34.9301C29.4434 40.8156 30.0656 43.9497 31.0084 46.6593C31.9512 49.3689 33.1956 51.559 33.8886 52.7439C34.5815 53.9287 34.6852 54.042 34.7921 54.1587" stroke="#95A492" stroke-width="4" stroke-linecap="round"/>
</svg>
